# xmcd
#
# Track frame offsets: 
#        182
#        4950
#        25090
#        44150
#        63242
#        81587
#        89250
#        112062
#        133025
#        136300
#        155537
#        176292
#        183407
#        203957
#        217237
#        233027
#
# Disc length: 3375 seconds
#
# Revision: 23
# Processed by: cddbd v1.5.2PL0 Copyright (c) Steve Scherf et al.
# Submitted via: ExactAudioCopy v1.3
#
DISCID=e80d2d10
DTITLE=TLC - CrazySexyCool
DYEAR=1994
DGENRE=R&B
TTITLE0=Intro-lude
TTITLE1=Creep
TTITLE2=Kick Your Game
TTITLE3=Diggin' On You
TTITLE4=Case Of The Fake People
TTITLE5=CrazySexyCool (Interlude)
TTITLE6=Red Light Special
TTITLE7=Waterfalls
TTITLE8=Intermission-lude
TTITLE9=Let's Do It Again
TTITLE10=If I Was Your Girlfriend
TTITLE11=Sexy (Interlude)
TTITLE12=Take Our Time
TTITLE13=Can I Get A Witness (Interlude)
TTITLE14=Switch
TTITLE15=Sumthin' Wicked This Way Comes
EXTD=Who's yer DADDY????
EXTT0=
EXTT1=
EXTT2=
EXTT3=
EXTT4=
EXTT5=
EXTT6=
EXTT7=
EXTT8=
EXTT9=
EXTT10=
EXTT11=
EXTT12=
EXTT13=
EXTT14=
EXTT15=
PLAYORDER=
